<svg width="81" height="81" viewBox="0 0 81 81" fill="none" xmlns="http://www.w3.org/2000/svg">
<path d="M81 27.0923C81.0003 21.6349 79.3579 16.3046 76.2878 11.7996C73.2178 7.2947 68.8631 3.82511 63.7946 1.84539C58.7261 -0.134364 53.1796 -0.531954 47.8821 0.704661C42.5843 1.94128 37.7825 4.75446 34.1052 8.77571H0V81H72.0091V47.246C74.8354 44.7096 77.097 41.6038 78.6462 38.131C80.1955 34.6583 80.9975 30.8971 81 27.0923ZM67.1447 27.0923C67.1502 29.7073 66.3823 32.2653 64.9383 34.4425C63.494 36.6194 61.4389 38.3177 59.0324 39.3221C56.6259 40.3268 53.9768 40.5925 51.4197 40.0855C48.8629 39.5788 46.5132 38.3221 44.6683 36.4749C42.8234 34.6276 41.5663 32.2727 41.0558 29.7081C40.5453 27.1438 40.8047 24.4849 41.8008 22.0684C42.7969 19.6517 44.4852 17.586 46.6518 16.1326C48.8186 14.6791 51.3664 13.9033 53.9727 13.9033C57.4613 13.9033 60.8076 15.2919 63.277 17.7646C65.7466 20.2372 67.1376 23.5918 67.1447 27.0923ZM58.1538 67.0981H13.8553V22.6777H27.3552C27.0945 24.135 26.9573 25.6119 26.9453 27.0923C26.9527 34.2823 29.8024 41.1757 34.8696 46.26C39.9365 51.3439 46.8067 54.2035 53.9727 54.2107C55.3738 54.2033 56.7719 54.084 58.1538 53.8542V67.0981Z" fill="#DDEEFF"/>
</svg>
